
        <svg xmlns="http://www.w3.org/2000/svg" xmlns:xlink="http://www.w3.org/1999/xlink" version="1.1" width="3168.226604012309" 
        height="1070.410042315012" viewBox="0 0 3168.226604012309 1070.410042315012">
			
			<g transform="scale(8.41133020061544) translate(10, 10)">
				<defs id="SvgjsDefs2422"></defs><g id="SvgjsG2423" featureKey="ggLddZ-0" transform="matrix(1.3049465417861938,0,0,1.3049465417861938,-16.927766330283266,-11.618745081025866)" fill="#000000"><g xmlns="http://www.w3.org/2000/svg"><path d="M15.589,66.171c3.313-6.224,8.636-16.205,8.997-16.752c0.525-0.797,1.154-1.724,2.94-3.299   c1.786-1.576,4.451-4.308,4.451-4.308s-5.769,0.144-5.816-3.991c-0.016-1.37,1.367-5.963,3.783-10.725   c2.416-4.763,11.729-14.006,11.729-14.006s-7.528,4.247-9.695,5.508c-2.166,1.26-12.854,8.613-14.01,16.387   c-1.155,7.772-4.996,36.106-4.996,36.106c0,0.001,3.877,7.506,12.069,13.809c8.193,6.303,23.95,6.197,23.95,6.197l1.991-1.577   c-2.739-0.423-15.545-5.674-21.424-9.978C24.334,75.718,17.133,67.877,15.589,66.171z"></path><path d="M85.908,66.802c-0.508-0.897-2.702-1.154-5.194-0.695c-2.492,0.458-2.94,1.882-3.186,2.442s0.595,2.556,1.681,3.291   s1.365,0.91,2.416,0.876c1.051-0.035,1.52-0.376,1.753-0.942c0.305-0.74-1.094-1.374-1.103-1.864   c-0.01-0.47,1.499-0.043,1.864,0.315c0.365,0.357,0.93,1.246,0.21,2.547c-0.562,1.015-2.907,4.159-4.65,5.861   c-1.506,1.471-4.973,3.676-8.475,3.711c-3.501,0.036-4.621-0.21-7.737-1.015c-2.304-0.596-7.402-3.925-9.595-5.183   c-0.772-0.443-0.451,0.2-0.215,0.498c1.278,1.606,6.201,5.197,11.239,6.841c3.927,1.281,9.243,0.604,11.712-0.524   c2.131-0.976,3.812-2.455,5.783-4.622c2.367-2.602,4.615-6.089,4.616-7.773C87.029,68.882,86.457,67.773,85.908,66.802z"></path><path d="M73.99,49.606c-0.104,0.84,0.525,3.389,0.525,3.389s0.21-0.343,0.473-1.184c0.263-0.84,0.998-1.785,0.998-1.785   s0,0-0.735-0.42S73.99,49.606,73.99,49.606z"></path><path d="M77.878,14.522c0,0-7.773,6.197-8.509,8.508c-0.734,2.312,0.946,6.514,2.206,8.299c1.261,1.785,1.959,4.097,1.959,4.097   s5.079-9.769,5.604-14.392C79.664,16.413,79.349,14.312,77.878,14.522z"></path><path d="M30.294,37.001c0,0,2.94,0.735,4.832,0c1.891-0.734,2.626-6.092,3.886-7.878c1.262-1.786,3.992-9.349,1.892-9.559   c0,0-6.198,6.197-8.089,9.559S30.294,37.001,30.294,37.001z"></path><path d="M62.472,54.192c0,0-0.63-1.119-1.399-1.891c-0.77-0.77-3.012-2.17-3.012-2.17s-0.42,1.346-1.33,1.346   s-1.506-0.82-1.506-0.82s-0.596-0.071-1.786,0.35c-1.19,0.42-2.696,1.295-2.696,1.295s2.731,2.767,5.322,3.432   C58.655,56.399,62.472,54.192,62.472,54.192z"></path><path d="M67.339,26.546c0,0-2.522-4.423,6.944-12.039c4.121-3.314,8.285-5.572,8.285-5.572s-2.73-0.315-5.042,1.051   c-2.311,1.365-7.22,4.937-8.337,5.986c-1.116,1.051-6.158,0.631-8.784,4.623c0,0,1.771,0.817,3.081,1.75   C64.797,23.276,67.339,26.546,67.339,26.546z"></path></g></g><g id="SvgjsG2424" featureKey="nN0dxP-0" transform="matrix(1.6362651586532593,0,0,1.6362651586532593,114.64377812257867,22.182409234193763)" fill="#000000"><path d="M8.14 15.2 l3.2 0 l0 2.3 c0 1.38 -1.12 2.5 -2.5 2.5 l-4.9 0 c-1.38 0 -2.5 -1.12 -2.5 -2.5 l0 -9 c0 -1.38 1.12 -2.5 2.5 -2.5 l4.9 0 c1.38 0 2.5 1.12 2.5 2.5 l0 2.3 l-3.2 0 l0 -1.58 l-3.5 0 l0 7.58 l3.5 0 l0 -1.6 z M21.3 6 l3.9 14 l-3.2 0 l-0.56 -2.02 l-3.46 0 l-0.56 2.02 l-3.2 0 l3.9 -14 l3.18 0 z M18.880000000000003 14.719999999999999 l1.66 0 l-0.84 -2.98 z M34.78 6 l3.2 0 l0 14 l-3.2 0 l-3.5 -7.28 l0 7.28 l-3.2 0 l0 -14 l3.2 0 l3.5 7.3 l0 -7.3 z M44.06 6 l0 14 l-3.2 0 l0 -14 l3.2 0 z M53.64 6 l3.2 0 l0 14 l-3.2 0 l-3.5 -7.28 l0 7.28 l-3.2 0 l0 -14 l3.2 0 l3.5 7.3 l0 -7.3 z M68.52 9.22 l-5.6 0 l0 2.18 l4.02 0 l0 3.2 l-4.02 0 l0 2.2 l5.6 0 l0 3.2 l-8.8 0 l0 -14 l8.8 0 l0 3.22 z M78.10000000000001 15.2 l3.2 0 l0 2.3 c0 1.38 -1.12 2.5 -2.5 2.5 l-4.9 0 c-1.38 0 -2.5 -1.12 -2.5 -2.5 l0 -9 c0 -1.38 1.12 -2.5 2.5 -2.5 l4.9 0 c1.38 0 2.5 1.12 2.5 2.5 l0 2.3 l-3.2 0 l0 -1.58 l-3.5 0 l0 7.58 l3.5 0 l0 -1.6 z M91.26 6 l3.9 14 l-3.2 0 l-0.56 -2.02 l-3.46 0 l-0.56 2.02 l-3.2 0 l3.9 -14 l3.18 0 z M88.84 14.719999999999999 l1.66 0 l-0.84 -2.98 z M105.44000000000001 6 c1.38 0 2.5 1.12 2.5 2.5 l0 5.26 c0 1.06 -0.66 1.96 -1.58 2.32 l1.58 3.92 l-3.4 0 l-1.52 -3.74 l-1.78 0 l0 3.74 l-3.2 0 l0 -14 l7.4 0 z M104.08000000000001 13.04 c0.36 0 0.66 -0.28 0.66 -0.64 l0 -2.54 c0 -0.36 -0.3 -0.64 -0.66 -0.64 l-2.84 0 l0 3.82 l2.84 0 z M119.56 9.22 l-5.6 0 l0 2.18 l4.02 0 l0 3.2 l-4.02 0 l0 2.2 l5.6 0 l0 3.2 l-8.8 0 l0 -14 l8.8 0 l0 3.22 z"></path></g><g id="SvgjsG2425" featureKey="IfqRl1-0" transform="matrix(0.7926822900772095,0,0,0.7926822900772095,116.43378712095469,60.47116859034871)" fill="#000000"><path d="M4.2286 20 l-3.5143 -12.571 l0 -1.7143 l3.4286 0 l1.8 7.2857 z M14.857 5.714 l3.4286 0 l0 1.7143 l-3.4857 12.571 l-3.4286 0 l-1.8571 -6.7429 l-1.8571 6.7429 l-2.8571 0 l3.4857 -14.286 l2.4286 0 l2.0857 8.4571 z M25.457114285714283 20 l-3.7429 0 l0.028571 -14.286 l3.7143 0 l0 14.286 z M30.599714285714285 5.714 l3.7143 0 l0 14.286 l-3.7143 0 l0 -5.5714 l-4.5714 0 l0 -3.1429 l4.5714 0 l0 -5.5714 z M42.17147142857142 20 l-1.5714 0 l-2.1429 -2.1429 l0 -12.143 l3.7143 0 l0 14.286 z M42.742871428571426 5.714 l7.8571 0 l0 3.1429 l-7.8571 0 l0 -3.1429 z M49.45757142857143 11.2857 l0 3.1429 l-6.7143 0 l0 -3.1429 l6.7143 0 z M42.742871428571426 20 l0 -3.1429 l7.8571 0 l0 3.1429 l-7.8571 0 z M58.45718571428571 20 l-3.7143 0 l0 -14.286 l3.7143 0 l0 14.286 z M67.6002857142857 7.856999999999999 l0 5 l-2.1429 2.1429 l2.1429 3.2857 l0 1.7143 l-3.4286 0 l-2.9714 -4.8571 l-2.1714 0 l0 -3.1429 l4.8571 0 l0 -3.1429 l-4.8571 0 l0 -3.1429 l6.4286 0 z M75.45718571428571 20 l-1.5714 0 l-2.1429 -2.1429 l0 -12.143 l3.7143 0 l0 14.286 z M76.02858571428571 5.714 l7.8571 0 l0 3.1429 l-7.8571 0 l0 -3.1429 z M82.74328571428572 11.2857 l0 3.1429 l-6.7143 0 l0 -3.1429 l6.7143 0 z M76.02858571428571 20 l0 -3.1429 l7.8571 0 l0 3.1429 l-7.8571 0 z M100.17147142857142 20 l-3.7143 0 l0 -14.286 l3.7143 0 l0 14.286 z M106.88557142857142 5.714 l2.1429 2.1429 l0 10 l-2.1429 2.1429 l-6.1429 0 l0 -3.1429 l4.5714 0 l0 -8 l-4.5714 0 l0 -3.1429 l6.1429 0 z M116.88575714285713 20 l-1.5714 0 l-2.1429 -2.1429 l0 -10 l2.1429 -2.1429 l1.5714 0 l0 14.286 z M123.59985714285713 5.714 l2.1429 2.1429 l0 10 l-2.1429 2.1429 l-6.1429 0 l0 -3.1429 l4.5714 0 l0 -8 l-4.5714 0 l0 -3.1429 l6.1429 0 z M133.60004285714285 20 l-1.5714 0 l-2.1429 -2.1429 l0 -10 l2.1429 -2.1429 l1.5714 0 l0 14.286 z M140.60014285714286 5.714 l2.1429 2.1429 l0 2.1429 l-2.7143 0 l-1.1429 -1.1429 l-4.7143 0 l0 -3.1429 l6.4286 0 z M135.74284285714285 14.4286 l0 -3.1429 l7 0 l0 6.5714 l-2.1429 2.1429 l-6.4286 0 l0 -3.1429 l4.8571 0 l0 -2.4286 l-3.2857 0 z M150.60004285714285 11.2857 l7 0 l2.1429 2.1429 l0 4.4286 l-2.1429 2.1429 l-1.5714 0 l0 -5.5714 l-7 0 l-2.1429 -2.1429 l0 -4.4286 l2.1429 -2.1429 l1.5714 0 l0 5.5714 z M157.60014285714286 5.714 l2.1429 2.1429 l0 2.1429 l-2.7143 0 l-1.1429 -1.1429 l-4.7143 0 l0 -3.1429 l6.4286 0 z M155.45714285714286 16.8571 l0 3.1429 l-6.4286 0 l-2.1429 -2.1429 l0 -2.1429 l2.7143 0 l1.1429 1.1429 l4.7143 0 z M176.02861428571427 20 l-3.7143 0 l0 -12.143 l2.1429 -2.1429 l1.5714 0 l0 14.286 z M176.60001428571428 5.714 l7.8571 0 l0 3.1429 l-7.8571 0 l0 -3.1429 z M176.60001428571428 14.4286 l0 -3.1429 l6.7143 0 l0 3.1429 l-6.7143 0 z M187.45714285714286 20 l0 -2.8571 l1.1429 0 l0 -8.5714 l-1.1429 0 l0 -2.8571 l6 0 l0 2.8571 l-1.1429 0 l0 8.5714 l1.1429 0 l0 2.8571 l-6 0 z M206.02885714285713 5.714 l3.7143 0 l0 14.286 l-3.2857 0 l-9.2857 -13.343 l0 -0.94286 l3.2857 0 l5.5714 7.9429 l0 -7.9429 z M197.17145714285712 7.6 l3.7143 5.3143 l0 7.0857 l-3.7143 0 l0 -12.4 z M217.60004285714285 20 l-3.7143 0 l0 -14.286 l3.7143 0 l0 14.286 z M224.31414285714285 5.714 l2.1429 2.1429 l0 10 l-2.1429 2.1429 l-6.1429 0 l0 -3.1429 l4.5714 0 l0 -8 l-4.5714 0 l0 -3.1429 l6.1429 0 z M242.7714 20 l-3.7429 0 l0.028571 -14.286 l3.7143 0 l0 14.286 z M247.914 5.714 l3.7143 0 l0 14.286 l-3.7143 0 l0 -5.5714 l-4.5714 0 l0 -3.1429 l4.5714 0 l0 -5.5714 z M259.48575714285715 20 l-1.5714 0 l-2.1429 -2.1429 l0 -10 l2.1429 -2.1429 l1.5714 0 l0 14.286 z M266.1998571428571 5.714 l2.1429 2.1429 l0 10 l-2.1429 2.1429 l-6.1429 0 l0 -3.1429 l4.5714 0 l0 -8 l-4.5714 0 l0 -3.1429 l6.1429 0 z M283.0571428571428 5.714 l3.7143 0 l0 14.286 l-3.7143 0 l0 -8 l-2.5143 4.8571 l-1.8571 0 l-5.7143 -11.143 l3.2286 0 l3.4286 6.4857 z M272.48574285714284 6 l3.7143 7.2571 l0 6.7429 l-3.7143 0 l0 -14 z M294.62861428571426 20 l-1.5714 0 l-2.1429 -2.1429 l0 -12.143 l3.7143 0 l0 14.286 z M295.20001428571425 5.714 l7.8571 0 l0 3.1429 l-7.8571 0 l0 -3.1429 z M301.91471428571424 11.2857 l0 3.1429 l-6.7143 0 l0 -3.1429 l6.7143 0 z M295.20001428571425 20 l0 -3.1429 l7.8571 0 l0 3.1429 l-7.8571 0 z"></path></g>
			</g>
		</svg>
	